<?xml version="1.0" encoding="UTF-8"?>
<svg width="48px" height="48px" viewBox="0 0 48 48" version="1.1" xmlns="http://www.w3.org/2000/svg" xmlns:xlink="http://www.w3.org/1999/xlink">
    <title>tsingyun-ai-logo-白</title>
    <defs>
        <path d="M9.58190484,0 C9.23943197,0.0027545283 8.89825145,0.16972132 8.70073722,0.501747924 L8.70073722,0.501747924 L2.77315647,10.4076673 C2.58705801,10.7206241 2.58511948,11.1073175 2.76798707,11.4219694 L2.76798707,11.4219694 L7.4049405,19.1505402 C7.58673113,19.4637088 7.58565417,19.8487071 7.40214041,20.1608164 L7.40214041,20.1608164 L0.138484681,32.5485658 C-0.044167516,32.8591918 -0.0463214334,33.2416475 0.133099888,33.5543924 L0.133099888,33.5543924 L5.32447166,42.595178 C5.71670002,43.2780892 6.71504075,43.2833863 7.11437704,42.6047129 L7.11437704,42.6047129 L20.7898142,19.3973883 C21.1419797,18.7922396 20.8944945,18.1938713 20.7751675,17.9692713 L20.7751675,17.9692713 L10.4856886,0.510647169 C10.2896821,0.173323396 9.94505532,0.0027545283 9.59913618,0 L9.59913618,0 L9.58190484,0 Z M44.9608601,19.1871966 L23.7462812,19.3257705 C23.3781767,19.3281013 23.0393655,19.523249 22.8571441,19.837689 L22.8571441,19.837689 L9.20023067,43.3352986 C8.80714074,44.0116412 9.30512645,44.8530437 10.0973373,44.8513512 L10.0973373,44.8513512 L20.6819029,44.829948 C21.0512997,44.8288886 21.3916187,44.6341646 21.5747017,44.319089 L21.5747017,44.319089 L28.1049485,33.0731975 C28.2873853,32.7593932 28.6255503,32.5648811 28.9932241,32.5625503 L28.9932241,32.5625503 L38.4273824,32.5008913 C38.7954869,32.4985605 39.1340827,32.3032009 39.3163041,31.9887609 L39.3163041,31.9887609 L45.8635669,20.7019752 C46.2549337,20.0258445 45.7573788,19.1871966 44.967968,19.1871966 L44.967968,19.1871966 C44.9655987,19.1871966 44.9632294,19.1871966 44.9608601,19.1871966 L44.9608601,19.1871966 Z" id="path-1"></path>
        <radialGradient cx="57.8004477%" cy="70.5169516%" fx="57.8004477%" fy="70.5169516%" r="102.117527%" gradientTransform="translate(0.578, 0.7052), scale(0.975, 1), rotate(30.4309), scale(1, 0.3434), translate(-0.578, -0.7052)" id="radialGradient-3">
            <stop stop-color="#DCD9D4" offset="0%"></stop>
            <stop stop-color="#545556" offset="100%"></stop>
        </radialGradient>
        <radialGradient cx="63.365373%" cy="73.3677402%" fx="63.365373%" fy="73.3677402%" r="96.2632837%" gradientTransform="translate(0.6337, 0.7337), scale(0.8182, 1), rotate(29.4896), scale(1, 0.3434), translate(-0.6337, -0.7337)" id="radialGradient-4">
            <stop stop-color="#CCCCCC" offset="0%"></stop>
            <stop stop-color="#545556" offset="100%"></stop>
        </radialGradient>
    </defs>
    <g id="tsingyun-ai-logo-白" stroke="none" stroke-width="1" fill="none" fill-rule="evenodd">
        <g id="编组-3" transform="translate(1, 1)">
            <g id="编组">
                <mask id="mask-2" fill="white">
                    <use xlink:href="#path-1"></use>
                </mask>
                <g id="Clip-2"></g>
                <path d="M9.58190484,0 C9.23943197,0.0027545283 8.89825145,0.16972132 8.70073722,0.501747924 L8.70073722,0.501747924 L2.77315647,10.4076673 C2.58705801,10.7206241 2.58511948,11.1073175 2.76798707,11.4219694 L2.76798707,11.4219694 L7.4049405,19.1505402 C7.58673113,19.4637088 7.58565417,19.8487071 7.40214041,20.1608164 L7.40214041,20.1608164 L0.138484681,32.5485658 C-0.044167516,32.8591918 -0.0463214334,33.2416475 0.133099888,33.5543924 L0.133099888,33.5543924 L5.32447166,42.595178 C5.71670002,43.2780892 6.71504075,43.2833863 7.11437704,42.6047129 L7.11437704,42.6047129 L20.7898142,19.3973883 C21.1419797,18.7922396 20.8944945,18.1938713 20.7751675,17.9692713 L20.7751675,17.9692713 L10.4856886,0.510647169 C10.2896821,0.173323396 9.94505532,0.0027545283 9.59913618,0 L9.59913618,0 L9.58190484,0 Z M44.9608601,19.1871966 L23.7462812,19.3257705 C23.3781767,19.3281013 23.0393655,19.523249 22.8571441,19.837689 L22.8571441,19.837689 L9.20023067,43.3352986 C8.80714074,44.0116412 9.30512645,44.8530437 10.0973373,44.8513512 L10.0973373,44.8513512 L20.6819029,44.829948 C21.0512997,44.8288886 21.3916187,44.6341646 21.5747017,44.319089 L21.5747017,44.319089 L28.1049485,33.0731975 C28.2873853,32.7593932 28.6255503,32.5648811 28.9932241,32.5625503 L28.9932241,32.5625503 L38.4273824,32.5008913 C38.7954869,32.4985605 39.1340827,32.3032009 39.3163041,31.9887609 L39.3163041,31.9887609 L45.8635669,20.7019752 C46.2549337,20.0258445 45.7573788,19.1871966 44.967968,19.1871966 L44.967968,19.1871966 C44.9655987,19.1871966 44.9632294,19.1871966 44.9608601,19.1871966 L44.9608601,19.1871966 Z" id="Fill-1" fill="url(#radialGradient-3)" mask="url(#mask-2)"></path>
            </g>
            <text id="AI" fill="url(#radialGradient-4)" fill-rule="nonzero" font-family="JiangChengXieHei-900W, 江城斜黑体" font-size="8.55813953" font-style="italic" font-weight="800" letter-spacing="1.03287902">
                <tspan x="29.1254523" y="45.0369905">AI</tspan>
            </text>
        </g>
    </g>
</svg>